<svg xmlns="http://www.w3.org/2000/svg" version="1.1" xmlns:xlink="http://www.w3.org/1999/xlink" width="512" height="512" x="0" y="0" viewBox="0 0 512 512" style="enable-background:new 0 0 512 512" xml:space="preserve" class=""><g><path d="M509.652 126.341a8.016 8.016 0 0 0-11.337 0l-29.072 29.071v-40.506c0-18.566-15.105-33.67-33.67-33.67H76.426c-18.566 0-33.67 15.104-33.67 33.67v176.25L2.348 331.569a8.017 8.017 0 0 0 11.337 11.337l29.071-29.073v31.954c0 18.566 15.104 33.67 33.67 33.67h127.355l-5.879 35.273H187.59a8.017 8.017 0 0 0 0 16.034h136.818a8.017 8.017 0 0 0 0-16.034h-10.312l-5.879-35.273h127.355c18.566 0 33.67-15.105 33.67-33.67V178.086l40.408-40.407a8.015 8.015 0 0 0 .002-11.338zm-295.495 288.39 5.879-35.273h71.929l5.879 35.273h-83.687zm239.053-68.943c0 9.725-7.912 17.637-17.637 17.637H76.426c-9.725 0-17.637-7.912-17.637-17.637v-47.989l18.171-18.172v57.611a8.017 8.017 0 0 0 8.017 8.017h342.045a8.017 8.017 0 0 0 8.017-8.017V212.29l18.171-18.171v151.669zm-68.943-119.181a24.952 24.952 0 0 0-12.323 3.243l-50.135-45.121a24.976 24.976 0 0 0 2.065-9.963c0-13.851-11.268-25.119-25.119-25.119s-25.119 11.268-25.119 25.119c0 5.167 1.57 9.975 4.255 13.971l-56.492 73.441a24.984 24.984 0 0 0-8.156-1.367 24.959 24.959 0 0 0-13.57 3.998l-48.344-38.676a25.02 25.02 0 0 0 1.521-8.612c0-13.851-11.268-25.119-25.119-25.119s-25.118 11.268-25.118 25.119c0 4.004.947 7.79 2.621 11.153l-12.241 12.241v-109.44h326.012v74.175l-23.581 23.58a24.958 24.958 0 0 0-11.157-2.623zm9.085 25.119c0 5.01-4.076 9.086-9.086 9.086s-9.086-4.076-9.086-9.086 4.076-9.086 9.086-9.086 9.086 4.076 9.086 9.086zm-85.511-76.961c0 5.01-4.076 9.086-9.086 9.086-5.01 0-9.086-4.076-9.086-9.086 0-5.01 4.076-9.086 9.086-9.086 5.01.001 9.086 4.076 9.086 9.086zM222.33 285.93c0 5.01-4.076 9.086-9.086 9.086s-9.086-4.076-9.086-9.086 4.076-9.086 9.086-9.086 9.086 4.076 9.086 9.086zm-85.511-68.409c0 5.01-4.076 9.086-9.086 9.086-5.01 0-9.086-4.076-9.086-9.086s4.076-9.086 9.086-9.086c5.01 0 9.086 4.076 9.086 9.086zm-20.25 22.493a24.962 24.962 0 0 0 11.163 2.626c4.996 0 9.653-1.472 13.57-3.998l48.344 38.676a25.02 25.02 0 0 0-1.521 8.612c0 13.851 11.268 25.119 25.119 25.119s25.119-11.268 25.119-25.119c0-5.168-1.57-9.976-4.256-13.974l56.491-73.44a24.996 24.996 0 0 0 8.158 1.367c4.477 0 8.679-1.182 12.322-3.243l50.135 45.121a24.968 24.968 0 0 0-2.065 9.963c0 13.851 11.268 25.119 25.119 25.119s25.119-11.268 25.119-25.119c0-4.006-.948-7.794-2.623-11.158l12.243-12.243v100.896H92.994v-65.628l23.575-23.577zm336.641-68.568-18.171 18.171V123.46a8.017 8.017 0 0 0-8.017-8.017H84.977a8.017 8.017 0 0 0-8.017 8.017v133.492l-18.171 18.171V114.907c0-9.725 7.912-17.637 17.637-17.637h359.147c9.725 0 17.637 7.912 17.637 17.637v56.539z" fill="#ffffff" opacity="1" data-original="#000000"></path></g></svg>